<svg xmlns="http://www.w3.org/2000/svg" xmlns:xlink="http://www.w3.org/1999/xlink" version="1.1" x="0px" y="0px" viewBox="0 0 100 100" enable-background="new 0 0 100 100" xml:space="preserve"><path d="M82.143074,47.2806282c-0.0015335-0.0767784-0.0130463-0.1531487-0.0231857-0.2300835  c-0.0083389-0.0635223-0.0134583-0.1276054-0.0273819-0.1892357c-0.0135651-0.0595284-0.0357285-0.1175232-0.054718-0.1764374  c-0.0244141-0.0760117-0.0476532-0.1518707-0.0802612-0.2237854c-0.0058365-0.0128479-0.0079346-0.026413-0.0140228-0.0392113  l-8.7073975-18.2730846c-0.0125427-0.0262585-0.0308685-0.0475521-0.0443268-0.0730419  c-0.0253906-0.0482178-0.0505219-0.0958214-0.0796509-0.1420422c-0.0219574-0.0347042-0.0443268-0.0683346-0.0682297-0.101656  c-0.0259476-0.0362396-0.0536423-0.0700741-0.0815887-0.1042671c-0.0317917-0.0390034-0.0636749-0.077137-0.0984344-0.1139393  c-0.0276413-0.0292797-0.0557938-0.0572262-0.0850677-0.0848675c-0.0355225-0.0335274-0.0722733-0.0643406-0.109848-0.0951042  c-0.0354691-0.0290737-0.0705338-0.0578918-0.1082611-0.084816c-0.0330124-0.0236988-0.0665359-0.0457611-0.1009903-0.0675144  c-0.0460663-0.0290737-0.0934601-0.0541039-0.1415253-0.0794411c-0.0254898-0.0134621-0.0467834-0.031786-0.0730438-0.0442753  c-0.0129013-0.0061436-0.0264664-0.0082932-0.0394135-0.0141792c-0.0349579-0.0158176-0.070282-0.0296879-0.1062164-0.0436611  c-0.0526657-0.0204754-0.106308-0.036087-0.1604614-0.0522118c-0.0455627-0.0136147-0.0903473-0.0295334-0.1362076-0.0398731  c-0.0294876-0.0066032-0.0593262-0.0113125-0.089325-0.0166874c-0.0557404-0.0100822-0.1117401-0.0150986-0.1682968-0.0206795  c-0.054512-0.0052719-0.1083603-0.0117207-0.1627197-0.0126934c-0.0133133-0.0002556-0.0256958-0.0039406-0.0390549-0.0039406  H52.0965881v-4.505621c0-1.1580372-0.938549-2.0965881-2.0965881-2.0965881s-2.0965881,0.9385509-2.0965881,2.0965881v4.505621  H28.656559c-0.0134106,0-0.0257988,0.003685-0.0391579,0.0039406c-0.0545139,0.0009727-0.1085663,0.0074215-0.1632328,0.0127449  c-0.0563049,0.0055294-0.1119957,0.0105457-0.1674824,0.0205765c-0.029995,0.0053234-0.0597858,0.0100327-0.0893192,0.0166874  c-0.0461712,0.0104427-0.0912151,0.02631-0.1370258,0.0400791c-0.0540009,0.0161228-0.1074905,0.0316849-0.1600075,0.0521069  c-0.0358315,0.0139236-0.0710468,0.0277443-0.105854,0.04356c-0.0130005,0.0058861-0.0266685,0.0080357-0.0396175,0.0142307  c-0.0261574,0.0124378-0.047245,0.0306606-0.0726337,0.0440197c-0.0484219,0.0255413-0.09618,0.0507755-0.1426048,0.0800552  c-0.034193,0.0216522-0.0675144,0.0436096-0.1003246,0.0671558c-0.0374699,0.0267715-0.0722237,0.0552807-0.1074924,0.0841503  c-0.0381336,0.0311718-0.0754471,0.0624466-0.1114826,0.096487c-0.0289726,0.0273838-0.056818,0.0551777-0.0842018,0.0841503  c-0.0344486,0.0364952-0.0661335,0.0742702-0.0976639,0.1129169c-0.0284081,0.0348053-0.056612,0.0692024-0.0830231,0.1061077  c-0.0236492,0.0330162-0.0457611,0.0663891-0.0675144,0.1007862c-0.0290737,0.0461693-0.0542068,0.0936203-0.0795441,0.1417866  c-0.0135136,0.0255928-0.031889,0.0469875-0.0444813,0.073349L18.0564976,46.421875  c-0.0061417,0.0129013-0.0082912,0.0264626-0.0141258,0.0394135c-0.0324535,0.0716629-0.0555897,0.147316-0.0799541,0.2229691  c-0.0190926,0.0591202-0.0413589,0.1173172-0.0549221,0.1770515c-0.0139236,0.0616302-0.0190411,0.1257133-0.0273857,0.1892357  c-0.0101337,0.0769348-0.0216503,0.1533051-0.0231876,0.2300835c-0.0003071,0.014637-0.0043507,0.0282021-0.0043507,0.0429459  c0,5.9572601,4.8467255,10.8039856,10.8039875,10.8039856s10.8039856-4.8467255,10.8039856-10.8039856  c0-0.0147438-0.0040436-0.0283089-0.0043526-0.0429459c-0.0015335-0.0767784-0.0130501-0.1531487-0.0231857-0.2300835  c-0.0083427-0.0635223-0.0134621-0.1276054-0.0273857-0.1892357c-0.0135651-0.0595284-0.0357285-0.1175232-0.054718-0.1764374  c-0.0244141-0.0760117-0.0476532-0.1518707-0.0802574-0.2237854c-0.0058365-0.0128479-0.0079346-0.026413-0.0140266-0.0392113  L31.977932,31.1470776h15.9254799v44.3080521H30.9914703c-1.1580372,0-2.0965881,0.9385529-2.0965881,2.0965881  s0.9385509,2.0965881,2.0965881,2.0965881h38.0170593c1.1580353,0,2.0965881-0.9385529,2.0965881-2.0965881  s-0.9385529-2.0965881-2.0965881-2.0965881H52.0965881V31.1470776h15.9254761L60.7433815,46.421875  c-0.0061417,0.0129013-0.0082932,0.0264626-0.0141258,0.0394135c-0.0324554,0.0716629-0.0555916,0.147316-0.0799561,0.2229691  c-0.0190926,0.0591202-0.0413551,0.1173172-0.0549202,0.1770515c-0.0139236,0.0616302-0.019043,0.1257133-0.0273857,0.1892357  c-0.0101357,0.0769348-0.0216522,0.1533051-0.0231857,0.2300835c-0.000309,0.014637-0.0043526,0.0282021-0.0043526,0.0429459  c0,5.9572601,4.8467216,10.8039856,10.8039894,10.8039856c5.9572601,0,10.8039856-4.8467255,10.8039856-10.8039856  C82.1474304,47.3088303,82.1433868,47.2952652,82.143074,47.2806282z M28.656559,33.9240837l5.3860207,11.3028984H23.2705345  L28.656559,33.9240837z M28.656559,53.9343796c-2.9131126,0-5.3913479-1.8934822-6.270113-4.5142174h12.5402241  C34.047905,52.0408974,31.5696716,53.9343796,28.656559,53.9343796z M76.7294617,45.2269821H65.9574203l5.3860245-11.3028984  L76.7294617,45.2269821z M71.3434448,53.9343796c-2.9131165,0-5.3913498-1.8934822-6.2701187-4.5142174h12.5402298  C76.734787,52.0408974,74.2565536,53.9343796,71.3434448,53.9343796z"></path></svg>